<svg id="left_curlie" data-name="left curlie" xmlns="http://www.w3.org/2000/svg" viewBox="0 0 47.2 160.4"><defs><style>.cls-1{fill:none;stroke:#000;stroke-miterlimit:10;}</style></defs><title>left curlie</title><path class="cls-1" d="M69.67,104.73c14.2,0,16.2-7.8,16.2-14.8a119.39,119.39,0,0,0-1.6-16.8,116.58,116.58,0,0,1-1.6-16.6c0-18.4,12-26.2,29-26.2h4.2v11h-3.6c-11.8,0-15.8,6.4-15.8,17.2a87.54,87.54,0,0,0,1.4,14.2,93.35,93.35,0,0,1,1.4,15.2c.2,12.8-5.4,19.2-14.4,21.6v.4c9,2.2,14.6,9,14.4,21.8a91.33,91.33,0,0,1-1.4,15.2,90,90,0,0,0-1.4,14.4c0,11.2,4.6,17.4,15.8,17.4h3.6v11h-4.2c-16.6,0-29-7.2-29-27.4a113.85,113.85,0,0,1,1.6-16.4,111.14,111.14,0,0,0,1.6-16.2c0-6.2-2-14.8-16.2-14.8Z" transform="translate(-69.17 -29.83)"/></svg>