<svg id="right_curlie" data-name="right curlie" xmlns="http://www.w3.org/2000/svg" viewBox="0 0 47.2 160.4"><defs><style>.cls-1{fill:none;stroke:#000;stroke-miterlimit:10;}</style></defs><title>right curlie</title><path class="cls-1" d="M132.6,114.93c-14.2,0-16.2,8.6-16.2,14.8a111.14,111.14,0,0,0,1.6,16.2,113.71,113.71,0,0,1,1.6,16.4c0,20.2-12.6,27.4-29,27.4H86.4v-11h3.4c11.2-.2,16-6.2,16-17.4,0-4.8-.8-9.4-1.4-14.4a90.85,90.85,0,0,1-1.6-15.2c0-12.8,5.6-19.6,14.4-21.8v-.4c-8.8-2.4-14.4-8.8-14.4-21.6a93.13,93.13,0,0,1,1.6-15.2,117.58,117.58,0,0,0,1.4-14.2c0-10.8-4.2-17-15.8-17.2H86.4v-11h4c17,0,29.2,7.8,29.2,26.2a116.44,116.44,0,0,1-1.6,16.6,119.38,119.38,0,0,0-1.6,16.8c0,7,2,14.8,16.2,14.8Z" transform="translate(-85.9 -29.83)"/></svg>