<svg id="two_curlies" data-name="two curlies" xmlns="http://www.w3.org/2000/svg" viewBox="0 0 188.19 160.4"><defs><style>.cls-1{fill:none;stroke:#000;stroke-miterlimit:10;}</style></defs><title>two curlies</title><path class="cls-1" d="M14.6,100.73c14.2,0,16.2-7.8,16.2-14.8a119.39,119.39,0,0,0-1.6-16.8,116.58,116.58,0,0,1-1.6-16.6c0-18.4,12-26.2,29-26.2h4.2v11H57.2c-11.8,0-15.8,6.4-15.8,17.2a87.54,87.54,0,0,0,1.4,14.2,93.35,93.35,0,0,1,1.4,15.2c.2,12.8-5.4,19.2-14.4,21.6v.4c9,2.2,14.6,9,14.4,21.8a91.33,91.33,0,0,1-1.4,15.2,90,90,0,0,0-1.4,14.4c0,11.2,4.6,17.4,15.8,17.4h3.6v11H56.6c-16.6,0-29-7.2-29-27.4a113.85,113.85,0,0,1,1.6-16.4,111.14,111.14,0,0,0,1.6-16.2c0-6.2-2-14.8-16.2-14.8Z" transform="translate(-14.1 -25.83)"/><path class="cls-1" d="M201.79,110.93c-14.2,0-16.2,8.6-16.2,14.8a111.15,111.15,0,0,0,1.6,16.2,113.85,113.85,0,0,1,1.6,16.4c0,20.2-12.6,27.4-29,27.4h-4.2v-11H159c11.2-.2,16-6.2,16-17.4,0-4.8-.8-9.4-1.4-14.4a90.75,90.75,0,0,1-1.6-15.2c0-12.8,5.6-19.6,14.4-21.8v-.4c-8.8-2.4-14.4-8.8-14.4-21.6a93,93,0,0,1,1.6-15.2,117.67,117.67,0,0,0,1.4-14.2c0-10.8-4.2-17-15.8-17.2h-3.6v-11h4c17,0,29.2,7.8,29.2,26.2a116.58,116.58,0,0,1-1.6,16.6,119.39,119.39,0,0,0-1.6,16.8c0,7,2,14.8,16.2,14.8Z" transform="translate(-14.1 -25.83)"/></svg>